<svg width="13" height="11" viewBox="0 0 13 11" fill="none" xmlns="http://www.w3.org/2000/svg">
<path fill-rule="evenodd" clip-rule="evenodd" d="M12.9049 5.27117C13.0317 5.39737 13.0317 5.60242 12.9049 5.72862L10.3048 8.31695C10.2412 8.38032 10.1579 8.41206 10.0747 8.41206C9.99209 8.41206 9.90895 8.38032 9.84518 8.31695C9.71841 8.19075 9.71841 7.9857 9.84518 7.8595L11.8902 5.82374H6.82461C6.64517 5.82374 6.49957 5.6788 6.49957 5.50017C6.49957 5.32089 6.64517 5.1766 6.82461 5.1766L11.8902 5.17671L9.84529 3.1404C9.71852 3.0142 9.71852 2.80915 9.84529 2.68295C9.97206 2.55675 10.178 2.55675 10.3048 2.68295L12.9048 5.27116L12.9049 5.27117ZM5.52495 10.9999C2.47847 10.9999 0 8.53267 0 5.49995C0 2.46723 2.47844 3.52301e-08 5.52495 3.52301e-08C6.47787 -0.000108311 7.42176 0.24969 8.25366 0.721458C8.40971 0.809419 8.46422 1.00742 8.37586 1.16277C8.28685 1.31746 8.08793 1.37108 7.93254 1.28377C7.19736 0.867055 6.36534 0.647035 5.52494 0.647035C2.83648 0.647035 0.649904 2.82372 0.649904 5.50001C0.649904 8.17631 2.83648 10.353 5.52494 10.353C6.36545 10.353 7.19736 10.133 7.93254 9.71689C8.08793 9.62893 8.28675 9.6819 8.37586 9.83789C8.46422 9.99323 8.4097 10.1905 8.25366 10.2792C7.42109 10.7502 6.47787 11 5.52495 11V10.9999Z" fill="#6271FF"/>
</svg>
